<?xml version="1.0" standalone="no"?><!-- Generator: Gravit.io --><svg xmlns="http://www.w3.org/2000/svg" xmlns:xlink="http://www.w3.org/1999/xlink" style="isolation:isolate" viewBox="0 0 560 315" width="560" height="315"><defs><clipPath id="_clipPath_1Yg4nB0mnIVlHHE3jmFFyWluAheRkZ75"><rect width="560" height="315"/></clipPath></defs><g clip-path="url(#_clipPath_1Yg4nB0mnIVlHHE3jmFFyWluAheRkZ75)"><path d=" M 432.546 165.423 Q 497.192 178.288 377.993 230.871 Q 253.661 285.72 271.392 377.146 Q 330.399 458.703 393.05 451.339 Q 455.7 443.975 463.618 442.893 Q 493.116 452.293 567.179 414.949 Q 641.243 377.605 656.427 325.949 Q 678.032 251.762 615.884 233.885 Q 553.736 216.008 593.653 164.744 Q 647.677 57.184 558.546 72.338 L 572.483 -4.015 Q 514.483 -112.015 447.483 -134.015 Q 380.483 -156.015 352.483 -13.015 Q 335.483 77.985 352.483 132.985 Q 369.229 187.16 432.546 165.423 Z " fill="rgb(215,83,83)"/><g opacity="0.35"><path d=" M -66.411 354.018 C -67.526 363.896 -67.03 374.189 -64.955 384.888 Q -63.869 386.39 -62.781 387.83" fill="rgb(215,83,83)"/></g><g opacity="0.35"><path d=" M 555.46 192.66 C 557.508 185.722 561.827 178.04 568.376 169.629 Q 618.289 70.254 535.94 84.254 L 548.817 13.71 Q 495.23 -86.072 433.328 -106.398 Q 371.426 -126.724 345.556 5.395 Q 329.85 89.471 345.556 140.286 Q 361.027 190.34 419.527 170.257 Q 479.254 182.143 369.125 230.725 Q 276.078 271.772 269.179 335" fill="rgb(215,83,83)"/></g><g opacity="0.35"><path d=" M -32.915 421.723 C -26.725 427.521 -20.501 432.483 -14.245 436.677" fill="rgb(215,83,83)"/></g></g></svg>