<?xml version="1.0" standalone="no"?><!-- Generator: Gravit.io --><svg xmlns="http://www.w3.org/2000/svg" xmlns:xlink="http://www.w3.org/1999/xlink" style="isolation:isolate" viewBox="0 0 955 680.5" width="955" height="680.5"><defs><clipPath id="_clipPath_tpq57JVE6dv952vuohhmM0jjmsaSkEUK"><rect width="955" height="680.5"/></clipPath></defs><g clip-path="url(#_clipPath_tpq57JVE6dv952vuohhmM0jjmsaSkEUK)"><path d=" M 857.57 577.95 C 850.45 581.62 842.99 584.79 835.64 587.9 C 808.45 599.37 780.84 610.96 751.64 614.9 C 696.77 622.25 640.16 602.25 586.26 614.73 C 541.11 625.15 503.77 657.08 459.66 671.3 C 439.15 677.91 417.81 680.5 396.28 680.5 L 393.5 680.5 C 390.85 680.5 388.21 680.4 385.56 680.3 C 363.73 679.48 341.81 676.3 320.41 672.13 C 252.84 659.13 184.07 635.3 132.41 591.43 C 282.83 563.94 592.68 521.76 857.57 577.95 Z " fill="rgb(255,255,255)"/><g opacity="0.4"><rect x="324" y="272" width="27" height="35" transform="matrix(1,0,0,1,0,0)" fill="rgb(255,255,255)"/></g><g opacity="0.4"><rect x="383" y="272" width="27" height="35" transform="matrix(-1,0,0,-1,793,579)" fill="rgb(255,255,255)"/></g><g opacity="0.4"><rect x="324" y="328" width="27" height="35" transform="matrix(1,0,0,1,0,0)" fill="rgb(255,255,255)"/></g><g opacity="0.4"><rect x="324" y="384" width="27" height="35" transform="matrix(1,0,0,1,0,0)" fill="rgb(255,255,255)"/></g><g opacity="0.4"><rect x="324" y="440" width="27" height="35" transform="matrix(1,0,0,1,0,0)" fill="rgb(255,255,255)"/></g><g style="opacity:0.5;"><g opacity="0.5"><linearGradient id="_lgradient_2" x1="-0.027135487302852646" y1="0.4358113027894665" x2="0.9257698475385098" y2="0.5898069564949682" gradientTransform="matrix(315.378,0,0,494.613,262.094,133.219)" gradientUnits="userSpaceOnUse"><stop offset="0%" stop-opacity="0.25" style="stop-color:rgb(128,128,128)"/><stop offset="54%" stop-opacity="0.12" style="stop-color:rgb(128,128,128)"/><stop offset="100%" stop-opacity="0.1" style="stop-color:rgb(128,128,128)"/></linearGradient><path d=" M 522.03 443.01 L 507.5 374.61 L 508.99 374.61 L 508.76 373.45 L 509.18 373.45 L 501.66 336.45 C 501.66 336.45 502.04 297.8 503.87 282.85 C 505.21 271.94 507.33 258.04 505.78 246.34 C 505.994 246.017 506.191 245.683 506.37 245.34 C 507.012 244.096 507.399 242.736 507.51 241.34 C 508.07 238.07 507.631 234.707 506.25 231.69 L 521.36 222.25 C 521.7 222.25 522.05 222.32 522.36 222.34 C 522.36 222.2 522.22 221.98 522.11 221.69 C 536.781 222.461 550.253 213.612 555.37 199.84 C 556.7 201.838 558.345 203.607 560.24 205.08 C 564.31 208.13 570.72 208.81 574.11 205.02 C 575.345 203.507 576.18 201.709 576.54 199.79 C 576.74 198.93 576.88 198.05 577 197.18 C 578.92 186.96 574.71 176.42 569.28 167.46 C 562.49 156.27 553.48 146.14 542.03 139.78 C 530.58 133.42 516.53 131.14 504.14 135.38 C 491.75 139.62 479.27 151.13 478.14 164.18 C 477.58 170.85 478.38 173.94 477 180.49 C 476.31 183.75 477.8 190.1 477.78 193.7 C 477.659 194.361 477.579 195.029 477.54 195.7 C 477.34 199.7 478.93 203.48 480.09 207.32 C 463.75 208.14 420.78 211.45 408.37 224.07 C 392.93 239.76 355.07 245.37 355.07 245.37 L 292.02 258.06 L 270.02 267.4 L 270.27 268.4 L 269.83 268.59 C 269.83 268.59 270.61 271.5 271.73 275.34 C 266.822 279.782 263.609 285.791 262.64 292.34 C 261.42 299.13 262.07 307.87 266.37 319.02 C 266.37 319.02 288.08 358.89 289.58 374.97 L 316.98 429.66 C 314.63 434.35 291.15 481.75 287.11 508.28 C 286.79 510.19 286.573 512.116 286.46 514.05 C 286.46 514.05 286.31 515.45 285.94 517.78 C 284.33 527.61 279.24 551.78 266.81 563.08 L 266.81 563.08 L 266.81 563.08 L 266.97 563.22 L 266.97 563.22 L 266.97 563.22 L 266.61 563.57 L 266.89 563.81 C 263.16 570.94 268.55 580.6 268.55 580.6 L 274.68 607.98 L 281.54 609.09 L 288.76 606.15 L 292.76 613.84 C 292.76 613.84 323.91 618.84 332.76 618.55 C 332.76 618.55 325.26 603.26 319.53 598.81 C 316.35 596.35 313.86 586.24 312.28 577.73 C 313.114 577.053 313.863 576.277 314.51 575.42 C 314.51 575.42 310.7 555.42 322.17 527.98 C 327.06 516.3 332.32 502.87 336.77 491.3 C 339.16 506.84 341.67 522.85 343.52 533.78 C 346.21 549.61 345.86 559.27 345.03 564.72 C 344.876 566.621 344.428 568.487 343.7 570.25 C 343.737 570.301 343.77 570.354 343.8 570.41 C 343.748 570.551 343.684 570.689 343.61 570.82 C 343.67 570.92 343.73 571.01 343.78 571.11 C 337.52 578.27 344.04 589.95 344.04 589.95 L 350.17 617.25 L 357.03 618.36 L 364.25 615.42 L 368.25 623.11 C 368.25 623.11 399.4 628.11 408.25 627.82 C 408.25 627.82 400.75 612.53 395.01 608.08 C 390.54 604.61 387.44 585.98 386.29 577.99 C 387.12 577.91 387.58 577.85 387.58 577.85 L 387.49 577.3 L 387.68 577.3 L 383.76 554.38 C 377.06 548.61 377.99 466.64 377.99 466.64 C 377.99 466.64 374.5 475.21 374.39 474.52 C 374.73 473.14 375.99 469.24 378.91 460.93 C 380.625 456.165 381.894 451.25 382.7 446.25 C 385.87 426.74 379.96 414.81 379.96 414.81 C 380.35 410.89 376.22 395.66 371.34 379.44 L 386.67 349.56 C 388.802 350.362 391.116 350.553 393.35 350.11 L 404.96 329.11 C 404.96 329.11 428.96 314.81 435.83 315.92 C 442.22 316.92 462.24 312.54 469.98 304.2 C 470.537 303.591 471.045 302.939 471.5 302.25 C 477.73 292.7 475.17 352.11 475.17 352.11 L 471.84 372.69 L 471.66 373.83 L 481.59 374.03 L 504.99 454.29 C 504.99 454.29 506.46 481.51 533.05 487.56 C 559.64 493.61 522.03 443.01 522.03 443.01 Z  M 362.2 350.25 C 360.76 345.81 359.5 341.98 358.55 339.11 L 363.5 335.25 C 363.5 335.25 364.12 335.77 365.17 336.6 L 362.2 350.25 Z " fill="url(#_lgradient_2)"/></g></g><path d=" M 386.33 569.31 C 386.33 569.31 389.72 597.87 395.33 602.21 C 395.33 602.21 416.86 621.12 408.23 621.44 C 408.23 621.44 369.23 616.86 369.23 616.86 L 365.3 609.36 L 358.3 612.22 L 351.61 611.14 L 345.61 584.45 C 345.61 584.45 337.19 569.37 349.04 563.28 C 360.89 557.19 386.33 569.31 386.33 569.31 Z " fill="rgb(58,56,77)"/><g opacity="0.1"><path d=" M 357.84 335.16 C 357.84 335.16 381.39 405.25 380.5 414.25 C 380.5 414.25 389.13 431.65 379.61 458.7 C 370.09 485.75 378.61 464.83 378.61 464.83 C 378.61 464.83 377.71 544.72 384.23 550.35 L 388.05 572.69 C 388.05 572.69 351.33 577.05 345.15 565.76 C 345.15 565.76 349.93 557.39 345.25 529.76 C 340.57 502.13 331.55 441.25 331.55 441.25 L 307.11 302.38 L 357.84 335.16 Z " fill="rgb(0,0,0)"/></g><path d=" M 357.93 334.6 C 357.93 334.6 381.48 404.73 380.59 413.73 C 380.59 413.73 389.22 431.13 379.7 458.18 C 370.18 485.23 378.7 464.31 378.7 464.31 C 378.7 464.31 377.8 544.21 384.32 549.83 L 388.14 572.18 C 388.14 572.18 351.42 576.53 345.24 565.24 C 345.24 565.24 350.02 556.87 345.34 529.24 C 340.66 501.61 331.63 440.7 331.63 440.7 L 307.2 301.82 L 357.93 334.6 Z " fill="rgb(190,199,222)"/><g opacity="0.1"><path d=" M 313.26 305.46 L 337.21 441.6 C 337.21 441.6 346.21 502.51 350.92 530.14 C 350.92 530.14 350.82 566.14 350.82 566.14 C 352.62 569.43 356.99 571.38 362.29 572.51 C 354.85 571.64 348.14 569.61 345.8 565.33 C 345.8 565.33 350.59 556.96 345.91 529.33 C 341.23 501.7 332.2 440.79 332.2 440.79 L 307.76 301.91 L 313.26 305.46 Z " fill="rgb(0,0,0)"/></g><path d=" M 312.89 560.3 C 312.89 560.3 316.27 588.86 321.89 593.2 C 321.89 593.2 343.42 612.11 334.79 612.43 C 334.79 612.43 295.79 607.85 295.79 607.85 L 291.86 600.35 L 284.86 603.22 L 278.17 602.13 L 272.17 575.44 C 272.17 575.44 263.75 560.36 275.59 554.27 C 287.43 548.18 312.89 560.3 312.89 560.3 Z " fill="rgb(58,56,77)"/><g opacity="0.1"><path d=" M 357.84 335.16 C 357.84 335.16 381.39 405.25 380.5 414.25 C 380.5 414.25 389.13 431.65 379.61 458.7 C 370.09 485.75 378.61 464.83 378.61 464.83 C 378.61 464.83 377.71 544.72 384.23 550.35 L 388.05 572.69 C 388.05 572.69 351.33 577.05 345.15 565.76 C 345.15 565.76 349.93 557.39 345.25 529.76 C 340.57 502.13 331.55 441.25 331.55 441.25 L 307.11 302.38 L 357.84 335.16 Z " fill="rgb(0,0,0)"/></g><g opacity="0.1"><path d=" M 283.21 273.36 C 283.21 273.36 257 283.42 271.1 320 C 271.1 320 292.27 358.86 293.74 374.54 L 320.54 428.04 C 320.54 428.04 291.96 484.6 290.69 510.12 C 290.69 510.12 286.87 544.38 271.45 558.46 C 271.45 558.46 304.62 586.69 316.97 570.39 C 316.97 570.39 313.26 550.93 324.45 524.15 C 335.64 497.37 348.91 461.25 348.91 461.25 C 348.91 461.25 381 439.56 359.62 394.94 L 335.62 295.59 L 335.23 273.23 L 316.82 266.83 L 283.21 273.36 Z " fill="rgb(0,0,0)"/></g><g opacity="0.1"><path d=" M 282.01 273.73 C 282.01 273.73 255.8 283.79 269.9 320.37 C 269.9 320.37 291.06 359.24 292.53 374.92 L 319.33 428.42 C 319.33 428.42 290.75 484.97 289.5 510.5 C 289.5 510.5 285.68 544.75 270.25 558.84 C 270.25 558.84 303.42 587.07 315.78 570.77 C 315.78 570.77 312.06 551.3 323.25 524.53 C 334.44 497.76 347.71 461.59 347.71 461.59 C 347.71 461.59 379.81 439.9 358.43 395.28 L 334.43 295.93 L 334.04 273.57 L 315.64 267.17 L 282.01 273.73 Z " fill="rgb(0,0,0)"/></g><path d=" M 282.1 273.18 C 282.1 273.18 255.89 283.25 269.99 319.82 C 269.99 319.82 285.54 348.37 290.9 366.4 C 293.24 374.144 296.251 381.67 299.9 388.89 L 319.42 427.89 C 319.42 427.89 290.84 484.45 289.58 509.97 C 289.58 509.97 285.76 544.23 270.33 558.31 C 270.33 558.31 303.5 586.54 315.86 570.24 C 315.86 570.24 312.14 550.78 323.33 524 C 334.52 497.22 347.79 461.06 347.79 461.06 C 347.79 461.06 379.89 439.37 358.51 394.75 L 334.51 295.4 L 334.12 273.04 L 315.72 266.64 L 282.1 273.18 Z " fill="rgb(190,199,222)"/><g opacity="0.1"><path d=" M 282.1 273.18 L 315.75 266.61 L 320.14 268.14 L 288.79 274.25 C 288.79 274.25 262.58 284.31 276.68 320.89 C 276.68 320.89 292.22 349.44 297.59 367.47 C 299.93 375.214 302.941 382.74 306.59 389.96 L 326.12 428.96 C 326.12 428.96 297.5 485.5 296.27 511.02 C 296.27 511.02 292.44 545.28 277.02 559.36 C 277.02 559.36 291.31 571.52 304.62 575.27 C 289.94 574.97 270.33 558.27 270.33 558.27 C 285.76 544.19 289.58 509.93 289.58 509.93 C 290.84 484.41 319.42 427.85 319.42 427.85 L 299.9 388.85 C 296.251 381.63 293.24 374.104 290.9 366.36 C 285.54 348.36 269.99 319.78 269.99 319.78 C 255.89 283.25 282.1 273.18 282.1 273.18 Z " fill="rgb(0,0,0)"/></g><path d=" M 390.09 344.37 L 369.22 385.02 C 369.22 385.02 375.34 439.18 363.65 440.72 C 363.65 440.72 356.65 381.28 356.65 381.28 L 367.9 329.35 L 390.09 344.37 Z " fill="rgb(190,124,94)"/><path d=" M 504.16 370.81 L 519.08 441.25 C 519.08 441.25 555.7 490.62 529.78 484.72 C 503.86 478.82 502.43 452.25 502.43 452.25 L 477.43 366.45 L 504.16 370.81 Z " fill="rgb(190,124,94)"/><path d=" M 519.03 225.7 L 482.13 248.9 L 468.96 213.61 C 468.96 213.61 499.5 215.69 503.06 204.26 C 506.62 192.83 519.03 225.7 519.03 225.7 Z " fill="rgb(190,124,94)"/><path d=" M 500.08 240.37 L 497.72 230.26 L 461.35 232.39 L 446.7 291.2 L 473.99 292.18 L 489.27 268.35 L 497.6 245.11 L 500.08 240.37 L 500.08 240.37 Z " fill="rgb(190,124,94)"/><g opacity="0.1"><path d=" M 487.5 229.76 L 490.5 212.81 C 490.5 212.81 423.19 213.65 408.14 228.94 C 408.14 228.94 356.19 249.71 356.19 249.71 L 294.73 262.07 L 273.24 271.18 C 273.24 271.18 279.3 293.88 281.9 295.45 C 281.9 295.45 313.52 273.11 313.52 273.11 L 324.52 276.03 L 288.7 313.69 L 354.81 378.69 L 356.03 342.87 L 364.5 336.25 C 364.5 336.25 384.63 353.25 393.61 350.67 L 404.93 330.2 C 404.93 330.2 428.33 316.26 435.02 317.34 C 441.25 318.34 460.77 314.05 468.31 305.92 C 468.839 305.35 469.321 304.738 469.75 304.09 C 475.83 294.78 473.33 352.69 473.33 352.69 L 469.91 373.86 L 506.38 374.61 L 499.06 338.55 C 499.06 338.55 499.43 300.88 501.21 286.3 C 501.21 286.3 506.21 251.67 499.68 239.17 L 486.84 251.39 L 464.5 287.25 L 472.98 256.03 L 487.5 229.76 Z " fill="rgb(0,0,0)"/></g><path d=" M 487.69 228.64 L 484.5 211.25 C 484.5 211.25 423.41 212.53 408.36 227.82 C 408.36 227.82 356.36 248.58 356.36 248.58 L 294.9 260.95 L 273.5 270.07 C 273.5 270.07 279.56 292.77 282.16 294.33 C 282.16 294.33 313.79 272 313.79 272 L 324.79 274.92 L 288.97 312.58 L 355.08 377.58 L 356.3 341.75 L 364.8 335.12 C 364.8 335.12 384.93 352.12 393.91 349.55 L 405.23 329.08 C 405.23 329.08 428.5 315.14 435.23 316.25 C 441.46 317.25 460.98 312.95 468.52 304.82 C 469.049 304.25 469.531 303.638 469.96 302.99 C 476.04 293.68 473.54 351.6 473.54 351.6 L 470.12 372.77 L 506.59 373.52 L 499.27 337.46 C 499.27 337.46 499.64 299.78 501.42 285.21 C 501.42 285.21 506.42 250.57 499.89 238.08 L 487.05 250.25 L 464.68 286.08 L 473.16 254.86 L 487.69 228.64 Z " fill="rgb(70,70,70)"/><g opacity="0.1"><path d=" M 410.64 250.78 C 410.64 250.78 374.23 281.49 370.42 298.03" fill="rgb(0,0,0)"/></g><g opacity="0.1"><path d=" M 450.39 277.25 C 450.39 277.25 422.39 298.45 417.39 311.93" fill="rgb(0,0,0)"/></g><g opacity="0.1"><path d=" M 368.62 309.17 C 368.62 309.17 365.99 321.89 365.47 328.67" fill="rgb(0,0,0)"/></g><g opacity="0.1"><path d=" M 355.31 338.46 C 355.31 338.46 313.37 300.81 307.5 301.58" fill="rgb(0,0,0)"/></g><g opacity="0.1"><path d=" M 503.5 204.9 C 506.91 193.96 518.43 223.62 519.4 226.17 C 518.304 226.108 517.213 225.988 516.13 225.81 C 507.291 224.396 499.422 219.409 494.37 212.02 C 498.86 210.61 502.44 208.38 503.5 204.9 Z " fill="rgb(0,0,0)"/></g><circle vector-effect="non-scaling-stroke" cx="520.91" cy="192.85" r="32.74000000000001" fill="rgb(190,124,94)"/><g opacity="0.1"><path d=" M 547.5 197.57 C 550.07 201.8 552.41 206.39 556.38 209.35 C 560.35 212.31 566.6 212.98 569.9 209.29 C 571.1 207.814 571.911 206.06 572.26 204.19 C 574.68 193.88 570.45 183.19 564.96 174.1 C 558.34 163.19 549.55 153.32 538.4 147.1 C 527.25 140.88 513.54 138.67 501.46 142.81 C 489.38 146.95 479.46 158.01 478.46 170.73 C 477.91 177.23 479.55 183.86 478.2 190.25 C 477.5 193.58 475.99 196.75 475.82 200.15 C 475.5 206.46 479.82 212.33 479.43 218.64 C 479.19 222.53 477.2 226.06 475.98 229.77 C 472.98 238.71 474.6 248.44 473.98 257.84 C 473.36 267.24 469.25 277.78 460.25 280.56 C 470.2 285.56 483.92 280.3 487.97 269.92 C 489.2 266.75 489.65 263.23 491.52 260.39 C 494.68 255.59 501.25 253.69 503.9 248.59 C 506.55 243.49 504.25 237.28 501.35 232.33 C 498.45 227.38 494.83 222.4 494.77 216.67 C 494.813 210.941 498.397 205.837 503.77 203.85 C 506.5 202.9 509.45 202.85 512.32 202.53 C 519.44 201.615 526.24 199.021 532.16 194.96 C 539.85 189.93 541.91 188.37 547.5 197.57 Z " fill="rgb(0,0,0)"/></g><path d=" M 547.71 196.14 C 550.28 200.38 552.62 204.96 556.59 207.93 C 560.56 210.9 566.81 211.56 570.11 207.87 C 571.308 206.392 572.119 204.64 572.47 202.77 C 574.89 192.46 570.66 181.77 565.17 172.68 C 558.55 161.76 549.76 151.9 538.61 145.68 C 527.46 139.46 513.75 137.26 501.67 141.39 C 489.59 145.52 477.43 156.75 476.36 169.47 C 475.81 175.97 476.6 178.98 475.25 185.36 C 474.55 188.69 476.18 195.36 476.01 198.74 C 475.69 205.05 480.01 210.92 479.62 217.23 C 479.38 221.12 477.39 224.65 476.17 228.35 C 473.17 237.3 474.79 247.03 474.17 256.43 C 473.55 265.83 469.44 276.36 460.44 279.14 C 470.39 284.14 484.11 278.88 488.16 268.5 C 489.39 265.34 489.84 261.82 491.71 258.98 C 494.87 254.18 501.44 252.28 504.09 247.18 C 506.74 242.08 504.44 235.86 501.55 230.91 C 498.66 225.96 495.02 220.99 494.96 215.25 C 495.008 209.525 498.59 204.426 503.96 202.44 C 506.69 201.49 509.64 201.44 512.51 201.12 C 519.629 200.201 526.428 197.607 532.35 193.55 C 540.08 188.5 542.14 186.95 547.71 196.14 Z " fill="rgb(114,54,71)"/><path d="M 493.655 217.337 L 479.766 215.093 C 478.687 214.918 477.952 213.903 478.126 212.827 L 478.126 212.827 C 478.3 211.751 479.317 211.019 480.396 211.193 L 494.285 213.438 C 495.364 213.612 496.099 214.627 495.925 215.703 L 495.925 215.703 C 495.751 216.779 494.734 217.512 493.655 217.337 Z" style="stroke:none;fill:#252A62;stroke-miterlimit:10;"/><path d=" M 451.14 491.45 C 451.37 507.11 464.58 519.45 480.24 519.45 L 482.42 519.45 C 484.345 519.444 486.197 520.19 487.58 521.53 C 488.629 522.512 489.357 523.787 489.67 525.19 C 489.819 525.755 489.893 526.336 489.89 526.92 L 489.89 554.57 C 489.88 559.887 491.4 565.094 494.27 569.57 C 498.445 575.911 500.709 583.318 500.79 590.91 L 500.79 590.91 C 500.789 594.49 502.228 597.92 504.782 600.429 C 507.336 602.937 510.791 604.314 514.37 604.25 C 521.69 604.12 527.43 597.82 527.43 590.49 L 527.43 583.58 L 531.07 584 L 531.07 590.93 C 531.072 594.506 532.511 597.93 535.062 600.435 C 537.614 602.94 541.065 604.314 544.64 604.25 C 551.97 604.12 557.71 597.82 557.71 590.49 L 557.71 586.99 C 561.34 588.51 581.93 588.51 587.64 586.99 L 589.19 586.87 L 589.19 590.87 C 589.179 594.457 590.612 597.897 593.167 600.415 C 595.722 602.932 599.184 604.315 602.77 604.25 C 610.09 604.12 615.83 597.82 615.83 590.49 L 615.83 584.75 L 617.04 584.64 L 617.04 590.94 C 617.047 594.515 618.489 597.937 621.042 600.439 C 623.595 602.941 627.046 604.314 630.62 604.25 C 637.288 604.025 642.802 598.982 643.62 592.36 C 643.695 591.739 643.736 591.115 643.74 590.49 L 643.74 561.57 C 643.751 551.636 640.423 541.986 634.29 534.17 C 632.11 531.332 632.017 527.409 634.06 524.47 C 640.84 514.54 650.87 497.78 650.54 485.9 C 650.609 482.678 649.48 479.546 647.37 477.11 C 647.24 476.96 647.1 476.82 646.97 476.68 C 637.21 466.46 620.03 474.5 621.52 488.55 C 622.027 493.256 621.688 498.014 620.52 502.6 C 619.843 505.189 618.929 507.709 617.79 510.13 C 615.449 515.111 610.187 518.039 604.72 517.4 C 602.908 517.178 601.085 517.068 599.26 517.07 L 543.26 517.07 C 536.52 517.073 530.528 512.781 528.36 506.4 C 527.791 504.771 527.503 503.056 527.51 501.33 L 527.51 457.73 C 527.511 455.435 526.582 453.238 524.935 451.64 C 523.288 450.042 521.064 449.18 518.77 449.25 C 516.531 449.331 514.42 450.316 512.92 451.98 C 511.404 453.65 510.563 455.824 510.56 458.08 C 510.563 459.272 510.09 460.415 509.248 461.258 C 508.405 462.1 507.262 462.573 506.07 462.57 L 479.6 462.57 C 471.979 462.569 464.675 465.625 459.326 471.054 C 453.976 476.482 451.028 483.829 451.14 491.45 Z " fill="rgb(243,173,85)"/><path d=" M 617.5 594.25 C 619.045 600.227 624.488 604.363 630.66 604.25 C 637.328 604.025 642.842 598.982 643.66 592.36 C 635.5 590.19 624.32 588.69 617.5 594.25 Z " fill="rgb(251,220,163)"/><path d=" M 589.6 594.25 C 591.149 600.228 596.595 604.364 602.77 604.25 C 609.417 604 614.9 598.962 615.71 592.36 C 607.65 590.19 596.5 588.69 589.6 594.25 Z " fill="rgb(251,220,163)"/><path d=" M 531.5 594.25 C 533.045 600.227 538.488 604.363 544.66 604.25 C 551.328 604.025 556.842 598.982 557.66 592.36 C 549.5 590.19 538.34 588.69 531.5 594.25 Z " fill="rgb(251,220,163)"/><path d=" M 501.2 594.25 C 502.745 600.23 508.194 604.368 514.37 604.25 C 521.017 604 526.5 598.962 527.31 592.36 C 519.25 590.19 508.07 588.69 501.2 594.25 Z " fill="rgb(251,220,163)"/><path d=" M 620.44 502.6 C 629.85 498.82 641.33 491.9 650.44 485.9 C 650.509 482.678 649.38 479.546 647.27 477.11 C 647.14 476.96 647 476.82 646.87 476.68 C 637.11 466.46 619.93 474.5 621.42 488.55 C 621.933 493.254 621.601 498.012 620.44 502.6 Z " fill="rgb(251,220,163)"/><path d=" M 609.05 517.15 C 609.05 517.15 583.14 549.77 540.75 517.07" fill="rgb(251,220,163)"/><path d=" M 527.43 456.52 C 527.43 456.52 511.69 477.11 527.43 502.52" fill="rgb(251,220,163)"/><path d=" M 489.89 526.76 C 489.89 526.76 503.76 543.98 490.07 557.68" fill="rgb(251,220,163)"/><g opacity="0.1"><path d=" M 488.68 523.12 C 489.68 524.12 489.36 525.02 489.68 526.44 L 534.68 514.65 C 532.26 512.78 529.25 510.57 528.26 507.65 C 522.88 511.8 512.21 518.82 488.68 523.12 Z " fill="rgb(0,0,0)"/></g><path d=" M 487.58 521.57 C 488.629 522.552 489.357 523.827 489.67 525.23 L 533.56 513.79 C 531.11 511.901 529.273 509.33 528.28 506.4 C 522.88 510.59 511.11 517.25 487.58 521.57 Z " fill="rgb(56,63,77)"/><g opacity="0.1"><path d=" M 526.63 508.82 C 526.63 508.82 512.9 519.15 489.89 522.35" fill="rgb(0,0,0)"/></g><path d=" M 526.63 507.61 C 526.63 507.61 512.9 517.94 489.89 521.14" fill="rgb(243,173,85)"/><g opacity="0.1"><path d=" M 492.31 508.59 C 492.31 508.59 469.31 515.86 463.25 492.85 L 492.31 508.59 Z " fill="rgb(0,0,0)"/></g><path d=" M 492.31 507.38 C 492.31 507.38 469.31 514.65 463.25 491.64 L 492.31 507.38 Z " fill="rgb(251,220,163)"/><ellipse vector-effect="non-scaling-stroke" cx="451.14" cy="488.61" rx="2.420000000000016" ry="4.240000000000009" fill="rgb(56,63,77)"/><g opacity="0.1"><line x1="634.6" y1="575.8" x2="629.76" y2="537.05"/></g><path d=" M 628.55 537.05 C 628.55 537.05 643.08 560.05 633.39 575.8 L 628.55 537.05 Z " fill="rgb(251,220,163)"/></g></svg>